<?xml version="1.0" encoding="utf-8"?>
<!-- Generator: Adobe Illustrator 23.0.5, SVG Export Plug-In . SVG Version: 6.00 Build 0)  -->
<svg version="1.1" id="Layer_1" xmlns="http://www.w3.org/2000/svg" xmlns:xlink="http://www.w3.org/1999/xlink" x="0px" y="0px"
	 viewBox="0 0 1920 1675.96" style="enable-background:new 0 0 1920 1675.96;" xml:space="preserve">
<style type="text/css">
	.st0{fill:#0E402D;}
</style>
<g>
	<g>
		<path class="st0" d="M960,34.56c-443.01,0-803.42,360.4-803.42,803.42s360.4,803.42,803.42,803.42s803.42-360.4,803.42-803.42
			S1403.01,34.56,960,34.56z M1493.22,1057.68c0,0-37.19-98.36-37.19-219.71h-97.74c0,189.95-42.81,343.94-42.81,343.94
			s-42.81-153.99-42.81-343.94h-89.59c0,264.04-45.34,478.08-45.34,478.08s-45.34-214.04-45.34-478.08h-81.66
			c0,346.7-50.74,627.76-50.74,627.76s-50.74-281.05-50.74-627.76H827.6c0,264.04-45.34,478.08-45.34,478.08
			s-45.34-214.04-45.34-478.08h-89.59c0,189.95-42.81,343.94-42.81,343.94s-42.81-153.99-42.81-343.94h-97.74
			c0,121.34-37.19,219.71-37.19,219.71s-37.19-98.36-37.19-219.71H260.25c0-385.85,313.9-699.75,699.75-699.75
			s699.75,313.9,699.75,699.75h-129.34C1530.41,959.32,1493.22,1057.68,1493.22,1057.68z"/>
		<path class="st0" d="M909.26,837.98h101.48c0-346.7-50.74-627.76-50.74-627.76S909.26,491.28,909.26,837.98z"/>
		<path class="st0" d="M736.92,837.98h90.67c0-264.04-45.34-478.08-45.34-478.08S736.92,573.94,736.92,837.98z"/>
		<path class="st0" d="M561.71,837.98h85.62c0-189.96-42.81-343.95-42.81-343.95S561.71,648.02,561.71,837.98z"/>
		<path class="st0" d="M389.59,837.98h74.38c0-121.34-37.19-219.71-37.19-219.71S389.59,716.64,389.59,837.98z"/>
		<path class="st0" d="M1092.4,837.98h90.67c0-264.04-45.34-478.08-45.34-478.08S1092.4,573.94,1092.4,837.98z"/>
		<path class="st0" d="M1272.67,837.98h85.62c0-189.96-42.81-343.95-42.81-343.95S1272.67,648.02,1272.67,837.98z"/>
		<path class="st0" d="M1456.03,837.98h74.38c0-121.34-37.19-219.71-37.19-219.71S1456.03,716.64,1456.03,837.98z"/>
	</g>
</g>
</svg>
