<?xml version="1.0" encoding="utf-8"?>
<!-- Generator: Adobe Illustrator 23.0.5, SVG Export Plug-In . SVG Version: 6.00 Build 0)  -->
<svg version="1.1" xmlns="http://www.w3.org/2000/svg" xmlns:xlink="http://www.w3.org/1999/xlink" x="0px" y="0px"
	 viewBox="0 0 191 60" style="enable-background:new 0 0 191 60;" xml:space="preserve">
<style type="text/css">
	.st0{display:none;}
	.st1{display:inline;}
	.st2{fill:#15AA63;}
</style>
<g id="Layer_2" class="st0">
	<rect x="0.8" class="st1" width="190.2" height="60"/>
</g>
<g id="Layer_1">
	<g>
		<g>
			<path class="st2" d="M78.63,29.03h-3.87v7.05h-4.69V11.63h8.31c3.26,0,5.86,0.79,7.8,2.38c1.94,1.59,2.91,3.7,2.91,6.34
				c0,2.61-0.94,4.71-2.83,6.3C84.39,28.23,81.84,29.03,78.63,29.03z M78.14,15.86h-3.38v9.09h3.87c1.77,0,3.16-0.41,4.2-1.22
				c1.03-0.82,1.55-1.89,1.55-3.22c0-1.41-0.56-2.54-1.67-3.38C81.59,16.29,80.07,15.86,78.14,15.86z"/>
			<path class="st2" d="M109.4,25.2c3.88,1.82,5.83,5.45,5.83,10.88h-4.73c0-2.88-0.84-5.18-2.53-6.91
				c-1.68-1.72-3.97-2.59-6.85-2.59h-2.44v9.49h-4.65V11.63h11.08c2.88,0,5.11,0.72,6.7,2.16c1.59,1.44,2.38,3.15,2.38,5.13
				c0,1.39-0.42,2.66-1.26,3.81C112.1,23.89,110.92,24.71,109.4,25.2z M98.68,15.62v7.17h6.36c1.39,0,2.48-0.37,3.28-1.1
				c0.8-0.73,1.2-1.59,1.2-2.57c0-0.95-0.4-1.77-1.2-2.47c-0.8-0.69-1.92-1.04-3.36-1.04H98.68z"/>
			<path class="st2" d="M120.69,36.08V11.63h4.77v24.45H120.69z"/>
			<path class="st2" d="M159.53,36.08H155l-1.25-18.63l-6.32,15.37h-3.56l-6.28-15.48l-1.34,18.74h-4.45l1.72-24.45h5.85l6.2,14.87
				l6.2-14.87h6.11L159.53,36.08z"/>
			<path class="st2" d="M186.54,33.06c-2.45,2.39-5.57,3.59-9.37,3.59c-3.8,0-6.93-1.2-9.37-3.59c-2.45-2.39-3.67-5.46-3.67-9.21
				c0-3.75,1.22-6.82,3.67-9.21c2.44-2.39,5.58-3.59,9.41-3.59c3.8,0,6.92,1.2,9.35,3.59c2.43,2.39,3.65,5.46,3.65,9.21
				C190.2,27.6,188.98,30.67,186.54,33.06z M171.27,29.94c1.53,1.59,3.5,2.38,5.89,2.38c2.39,0,4.35-0.79,5.89-2.38
				c1.53-1.59,2.3-3.62,2.3-6.09c0-2.5-0.77-4.54-2.3-6.13c-1.54-1.59-3.51-2.38-5.93-2.38c-2.36,0-4.31,0.79-5.85,2.38
				c-1.54,1.59-2.3,3.63-2.3,6.13C168.97,26.32,169.74,28.35,171.27,29.94z"/>
		</g>
		<g>
			<path class="st2" d="M73.06,42.96h1.41l2.98,7.01h-1.6l-0.64-1.56h-2.95l-0.64,1.56h-1.56L73.06,42.96z M74.67,47.06l-0.93-2.26
				l-0.93,2.26H74.67z"/>
			<path class="st2" d="M80.72,43.01h3.18c0.89,0,1.57,0.25,2.03,0.71c0.39,0.39,0.6,0.94,0.6,1.59v0.02c0,1.12-0.61,1.83-1.49,2.16
				l1.7,2.49h-1.79l-1.49-2.23h-1.2v2.23h-1.53V43.01z M83.81,46.39c0.75,0,1.17-0.4,1.17-0.99v-0.02c0-0.66-0.46-0.99-1.2-0.99
				h-1.52v2H83.81z"/>
			<path class="st2" d="M91.73,44.42h-2.12v-1.41h5.77v1.41h-2.12v5.55h-1.53V44.42z"/>
			<path class="st2" d="M98.81,43.01h1.53v6.97h-1.53V43.01z"/>
			<path class="st2" d="M104.28,43.01h5.3v1.39h-3.77v1.48h3.32v1.39h-3.32v2.7h-1.53V43.01z"/>
			<path class="st2" d="M113.06,43.01h1.53v6.97h-1.53V43.01z"/>
			<path class="st2" d="M118.22,46.51v-0.02c0-1.98,1.49-3.6,3.63-3.6c1.31,0,2.1,0.44,2.75,1.07l-0.98,1.12
				c-0.54-0.49-1.08-0.79-1.78-0.79c-1.17,0-2.02,0.98-2.02,2.17v0.02c0,1.19,0.83,2.19,2.02,2.19c0.8,0,1.28-0.32,1.83-0.82
				l0.98,0.99c-0.72,0.77-1.51,1.24-2.86,1.24C119.74,50.09,118.22,48.51,118.22,46.51z"/>
			<path class="st2" d="M128.13,43.01h1.53v6.97h-1.53V43.01z"/>
			<path class="st2" d="M135.98,42.96h1.41l2.99,7.01h-1.6l-0.64-1.56h-2.95l-0.64,1.56H133L135.98,42.96z M137.59,47.06l-0.93-2.26
				l-0.93,2.26H137.59z"/>
			<path class="st2" d="M143.64,43.01h1.53v5.57h3.47v1.39h-5.01V43.01z"/>
			<path class="st2" d="M158.79,44.42h-2.12v-1.41h5.77v1.41h-2.12v5.55h-1.53V44.42z"/>
			<path class="st2" d="M165.69,46.99v-3.98h1.53v3.94c0,1.13,0.57,1.72,1.5,1.72c0.94,0,1.5-0.57,1.5-1.67v-3.99h1.53v3.93
				c0,2.11-1.18,3.14-3.05,3.14C166.84,50.08,165.69,49.04,165.69,46.99z"/>
			<path class="st2" d="M175.52,43.01h3.18c0.89,0,1.57,0.25,2.03,0.71c0.39,0.39,0.6,0.94,0.6,1.59v0.02
				c0,1.12-0.61,1.83-1.49,2.16l1.7,2.49h-1.79l-1.49-2.23h-1.2v2.23h-1.53V43.01z M178.6,46.39c0.75,0,1.17-0.4,1.17-0.99v-0.02
				c0-0.66-0.46-0.99-1.2-0.99h-1.52v2H178.6z"/>
			<path class="st2" d="M184.9,43.01h5.3v1.39h-3.77v1.48h3.32v1.39h-3.32v2.7h-1.53V43.01z"/>
		</g>
		<g>
			<path class="st2" d="M29.52,1.27C13.68,1.27,0.8,14.16,0.8,30s12.89,28.73,28.73,28.73S58.25,45.84,58.25,30
				S45.36,1.27,29.52,1.27z M48.59,37.86c0,0-1.33-3.52-1.33-7.86h-3.49c0,6.79-1.53,12.3-1.53,12.3S40.7,36.79,40.7,30h-3.2
				c0,9.44-1.62,17.09-1.62,17.09S34.26,39.44,34.26,30h-2.92c0,12.4-1.81,22.45-1.81,22.45S27.71,42.4,27.71,30h-2.92
				c0,9.44-1.62,17.09-1.62,17.09S21.55,39.44,21.55,30h-3.2c0,6.79-1.53,12.3-1.53,12.3s-1.53-5.51-1.53-12.3h-3.49
				c0,4.34-1.33,7.86-1.33,7.86S9.13,34.34,9.13,30H4.5c0-13.8,11.22-25.02,25.02-25.02S54.54,16.2,54.54,30h-4.62
				C49.92,34.34,48.59,37.86,48.59,37.86z"/>
			<path class="st2" d="M27.71,30h3.63c0-12.4-1.81-22.45-1.81-22.45S27.71,17.6,27.71,30z"/>
			<path class="st2" d="M21.55,30h3.24c0-9.44-1.62-17.09-1.62-17.09S21.55,20.56,21.55,30z"/>
			<path class="st2" d="M15.28,30h3.06c0-6.79-1.53-12.3-1.53-12.3S15.28,23.21,15.28,30z"/>
			<path class="st2" d="M9.13,30h2.66c0-4.34-1.33-7.86-1.33-7.86S9.13,25.66,9.13,30z"/>
			<path class="st2" d="M34.26,30h3.24c0-9.44-1.62-17.09-1.62-17.09S34.26,20.56,34.26,30z"/>
			<path class="st2" d="M40.7,30h3.06c0-6.79-1.53-12.3-1.53-12.3S40.7,23.21,40.7,30z"/>
			<path class="st2" d="M47.26,30h2.66c0-4.34-1.33-7.86-1.33-7.86S47.26,25.66,47.26,30z"/>
		</g>
	</g>
</g>
</svg>
