<?xml version="1.0" encoding="utf-8"?>
<!-- Generator: Adobe Illustrator 24.3.0, SVG Export Plug-In . SVG Version: 6.00 Build 0)  -->
<svg version="1.1" id="Layer_1" xmlns="http://www.w3.org/2000/svg" xmlns:xlink="http://www.w3.org/1999/xlink" x="0px" y="0px"
	 viewBox="0 0 1920 1920" style="enable-background:new 0 0 1920 1920;" xml:space="preserve">
<style type="text/css">
	.st0{fill:#FFFFFF;}
</style>
<rect width="1920" height="1920"/>
<g>
	<path class="st0" d="M1198.74,862.33c12.98,0,25.13-0.16,37.27,0.2c1.52,0.04,3.58,2.55,4.35,4.36
		c8.96,21.11,17.7,42.31,26.52,63.47c4.53,10.86,9.09,21.7,14.15,33.8c2.18-4.93,3.93-8.72,5.53-12.56
		c11.76-28.22,23.55-56.43,35.14-84.72c1.42-3.47,3.16-4.75,6.92-4.65c10.66,0.26,21.33,0.22,32,0.02c3.57-0.07,4.89,0.89,5.11,4.67
		c1.61,27.73,3.39,55.44,5.25,83.16c1.69,25.21,3.57,50.41,5.19,75.63c0.07,1.16-1.53,3.46-2.41,3.48
		c-9.12,0.26-18.25,0.16-27.74,0.16c-2.86-42.37-5.68-84.23-8.51-126.09c-0.36-0.09-0.72-0.19-1.07-0.28
		c-1.97,4.76-3.96,9.51-5.92,14.28c-11.69,28.44-23.42,56.86-34.99,85.34c-1.3,3.21-2.83,5.02-6.5,4.46c-1.63-0.25-3.33,0-4.99-0.05
		c-4.79-0.15-10.71,1.31-14.04-0.98c-3.35-2.31-4.18-8.33-5.98-12.78c-11.9-29.42-23.76-58.86-35.65-88.28
		c-0.4-0.99-1.01-1.89-2.27-4.22c-0.86,12.34-1.6,23.17-2.37,33.99c-1.96,27.35-3.94,54.7-5.91,82.05
		c-0.02,0.33-0.08,0.66-0.11,0.99c-0.9,11.58-0.9,11.58-12.72,11.58c-5.79,0-11.59,0-17.98,0
		C1190.93,973.54,1194.81,918.25,1198.74,862.33z"/>
	<path class="st0" d="M1498.45,858.61c22.08-0.52,42.04,5.45,59.06,19.94c16.59,14.12,26.03,32.12,28.5,53.7
		c2.63,22.97-0.24,44.94-13.9,64.31c-17.42,24.71-41.97,35.91-71.75,36.57c-24.54,0.55-46.69-5.84-65.08-22.83
		c-14.36-13.27-22.96-29.69-25.54-48.97c-3.28-24.5-0.27-47.93,14.99-68.35c16.35-21.88,38.52-33.05,65.73-34.35
		C1493.12,858.5,1495.79,858.61,1498.45,858.61z M1554.41,945.46c-0.43-3.96-0.68-7.96-1.32-11.89
		c-7.2-44.69-57.3-58.52-88.26-36.54c-17.3,12.28-23.42,29.89-23.42,50.78c0.01,33.9,29.52,65.22,72.51,54.09
		C1539.16,995.37,1554.3,973.25,1554.41,945.46z"/>
	<path class="st0" d="M928.12,1029.37c0-55.67,0-110.78,0-166.4c1.03-0.2,2.27-0.64,3.51-0.64c28.16,0.12,56.33-0.14,84.47,0.61
		c21.47,0.57,41.93,16.42,47.61,35.34c6.84,22.77-4.12,45.58-26.33,54.77c-1.18,0.49-2.36,0.99-4.48,1.89
		c31.06,15.58,39.22,42.63,39.86,74.09c-10.66,0-21.04,0-30.58,0c-2.16-9.48-3.18-19.06-6.55-27.72
		c-8.65-22.24-26-33.95-49.35-36.51c-8.54-0.94-17.26-0.15-26.57-0.15c-0.11,1.47-0.35,3.19-0.35,4.92
		c-0.02,18.16-0.11,36.33,0.07,54.49c0.04,3.96-0.82,5.6-5.2,5.42C945.61,1029.12,936.98,1029.37,928.12,1029.37z M959.63,938.38
		c0.87,0.16,1.49,0.37,2.12,0.37c14.16,0.02,28.34,0.33,42.49-0.15c5.18-0.17,10.72-1.35,15.37-3.58
		c8.96-4.3,14.43-11.51,14.29-22.12c-0.13-10.11-5.88-16.31-14.21-20.55c-2.89-1.47-6.29-2.65-9.48-2.74
		c-16.47-0.43-32.96-0.45-49.44-0.59c-0.28,0-0.56,0.31-1.14,0.65C959.63,905.75,959.63,921.99,959.63,938.38z"/>
	<path class="st0" d="M794.9,1029.11c-10.49,0-20.42,0-30.75,0c0-55.38,0-110.75,0-166.43c0.45-0.09,1.05-0.33,1.65-0.33
		c22.82,0.14,45.74-0.98,68.44,0.8c24.64,1.93,45.93,12.25,55.29,37.01c12.12,32.06-1.7,66.74-40.79,77.55
		c-14.88,4.12-30.07,2.82-45.19,3c-8.67,0.11-8.66,0.02-8.66,8.78c0,11.33,0,22.66,0,33.99
		C794.9,1025.28,794.9,1027.07,794.9,1029.11z M795.15,890.61c0,21.16,0,41.56,0,62.19c1.24,0.21,2.35,0.57,3.47,0.57
		c9.48-0.01,18.99,0.3,28.44-0.29c5.37-0.34,10.94-1.46,15.91-3.49c9.35-3.82,16.15-10.48,18.08-20.93
		c2.96-16.03-5.32-29.25-21.84-34.95C824.98,888.79,810.27,891.26,795.15,890.61z"/>
	<path class="st0" d="M1142.53,1029.1c-10.69,0-20.95,0-31.85,0c0-2.01,0-3.78,0-5.55c0-51.8,0.06-103.59-0.1-155.39
		c-0.01-4.63,1.21-6.04,5.83-5.85c8.6,0.35,17.23,0.1,26.13,0.1C1142.53,918.18,1142.53,973.4,1142.53,1029.1z"/>
	<path class="st0" d="M1526.8,1124.02c-7.68,2.01-12.96,0.36-16.28-6.82c-2.43-5.26-5.85-9.95-13.61-6.94c0,4.25,0,8.98,0,14.02
		c-3.48,0-6.4,0-9.73,0c0-15.24,0-30.59,0-46.39c8.92,0,17.71-0.34,26.46,0.12c5.83,0.3,10.83,5.32,11.92,10.55
		c1.55,7.43-0.63,13.7-6,17.2c-1.1,0.72-2.24,1.37-3.62,2.21C1519.55,1113.3,1523.05,1118.47,1526.8,1124.02z M1496.92,1101.23
		c5.35-0.53,10.24-0.42,14.69-1.75c1.89-0.57,4.05-4.22,3.95-6.37c-0.1-2.17-2.56-5.65-4.49-6.03c-4.53-0.9-9.36-0.29-14.14-0.29
		C1496.92,1091.55,1496.92,1095.8,1496.92,1101.23z"/>
	<path class="st0" d="M865.83,1107.99c3.72,5.49,7.15,10.57,10.63,15.7c-7.93,2.41-10.58,1.51-14.88-4.86
		c-0.74-1.1-1.67-2.12-2.21-3.32c-2.39-5.36-6.3-7.39-12.59-5.36c0,4.31,0,9.03,0,14.1c-3.48,0-6.39,0-10.08,0
		c0-7.61,0-15.35,0-23.09c0-7.61,0-15.23,0-23.29c9.19,0,17.96-0.33,26.69,0.11c5.89,0.3,10.77,5.07,12.07,10.4
		c1.65,6.75-0.47,13.47-5.44,17.04C868.84,1106.29,867.51,1106.97,865.83,1107.99z M846.87,1101.13c5.05-0.45,9.83-0.49,14.43-1.41
		c3.54-0.71,5.45-4.01,4.23-7.25c-0.87-2.33-3.51-5.05-5.81-5.56c-4.05-0.9-8.45-0.25-12.85-0.25
		C846.87,1091.47,846.87,1095.86,846.87,1101.13z"/>
	<path class="st0" d="M1244.66,1124.63c-1.93,0-3.57-0.2-5.15,0.04c-3.78,0.59-5.99-0.9-6.75-4.6c-1.04-5.08-3.96-7.31-9.21-6.31
		c-1.12,0.22-2.35,0.18-3.49,0.01c-7.04-1.1-12.32,0.37-13.79,8.51c-0.18,0.97-2.3,2.01-3.66,2.26c-2.09,0.38-4.29,0.1-7.24,0.1
		c2.36-5.78,4.48-11.09,6.7-16.36c3.94-9.34,8.03-18.61,11.85-28c1.12-2.76,2.68-3.79,5.62-3.57c2.78,0.21,5.22-0.33,6.7,3.34
		c5.72,14.17,11.87,28.17,17.84,42.24C1244.34,1122.86,1244.4,1123.52,1244.66,1124.63z M1219.99,1088.77
		c-2.48,6.21-4.34,10.88-6.25,15.66c4.33,0,8.16,0,12.62,0C1224.26,1099.27,1222.41,1094.73,1219.99,1088.77z"/>
	<path class="st0" d="M812.93,1124.12c-9.36,1.28-9.52,1.35-12.72-6.78c-1.11-2.83-2.58-3.92-5.49-3.61c-1.81,0.19-3.68,0.23-5.48,0
		c-7.23-0.94-13.15-0.01-14.65,8.76c-0.15,0.87-2.07,1.86-3.28,2.03c-2.26,0.33-4.61,0.09-7.58,0.09
		c5.62-13.24,11.04-26.02,16.46-38.81c0.58-1.37,1.25-2.72,1.71-4.14c1.04-3.25,2.49-5.18,6.6-5.09c3.85,0.08,5.4,1.47,6.76,4.83
		c5.11,12.6,10.57,25.06,15.87,37.59C811.83,1120.64,812.32,1122.35,812.93,1124.12z M788.49,1088.91
		c-2.42,5.96-4.32,10.65-6.34,15.64c4.58,0,8.42,0,12.8,0C792.84,1099.45,790.94,1094.85,788.49,1088.91z"/>
	<path class="st0" d="M1450.73,1078.04c3.46,0,6.37,0,8.96,0c0,10.91,0.7,21.7-0.2,32.34c-0.9,10.67-10.33,15.48-21.15,15.08
		c-11.07-0.41-17.7-6.93-18.54-17.51c-0.14-1.82-0.38-3.65-0.39-5.47c-0.04-7.98-0.02-15.97-0.02-24.33c3.31,0,6.39,0,10.11,0
		c0,9.02-0.09,18.12,0.03,27.22c0.1,7.25,3.73,10.69,10.81,10.64c6.47-0.04,10.17-3.9,10.34-11.38
		C1450.88,1095.86,1450.73,1087.08,1450.73,1078.04z"/>
	<path class="st0" d="M1136.75,1117.41c-10.04,10.29-25.79,10.85-35.55,1.53c-9.62-9.2-9.98-25.59-0.74-35.17
		c9.74-10.09,28.49-9.17,36.32,0.06c-1.87,2.16-3.79,4.39-5.93,6.87c-2.15-1.26-4.16-2.7-6.36-3.68
		c-6.73-2.99-13.31-1.05-17.59,4.98c-3.88,5.47-3.37,14.28,1.13,19.54c4.1,4.79,11.97,6.07,17.83,2.91
		C1132.17,1111.03,1132.17,1111.03,1136.75,1117.41z"/>
	<path class="st0" d="M1551.2,1077.85c11.73,0,23.31,0,35.21,0c0,2.73,0,5.45,0,8.74c-5.98,0-11.92,0-17.86,0
		c-8.55,0-9.1,0.75-7.03,10.16c7.08,0,14.3,0,21.86,0c0,3.25,0,5.95,0,9.18c-6.13,0-12.08,0.19-18.01-0.07
		c-3.57-0.15-4.77,1.29-4.69,4.61c0.1,4.47,0.03,8.95,0.03,13.78c-3.1,0-6.15,0-9.51,0
		C1551.2,1108.86,1551.2,1093.49,1551.2,1077.85z"/>
	<path class="st0" d="M1033.61,1086.7c-8.65,0-16.75,0-25.17,0c0,3.47,0,6.54,0,10.2c7.44,0,14.66,0,22.15,0c0,3.16,0,5.73,0,8.92
		c-6.11,0-12.05,0.17-17.98-0.06c-3.52-0.14-4.73,1.13-4.56,4.59c0.23,4.47,0.05,8.96,0.05,13.84c-3.14,0-6,0-9.26,0
		c0-15.25,0-30.48,0-46.12c11.39,0,22.92,0,34.76,0C1033.61,1080.86,1033.61,1083.43,1033.61,1086.7z"/>
	<path class="st0" d="M936.41,1078c0,2.89,0,5.49,0,8.54c-4.63,0-9.05,0-14.28,0c0,12.79,0,25.15,0,37.79c-3.71,0-6.62,0-10.13,0
		c0-12.36,0-24.73,0-37.6c-4.98,0-9.39,0-14.09,0c0-3.1,0-5.69,0-8.72C910.57,1078,923.28,1078,936.41,1078z"/>
	<path class="st0" d="M1396.2,1086.64c-4.83,0-9.26,0-14.3,0c0,12.73,0,25.09,0,37.71c-3.51,0-6.42,0-9.78,0
		c0-12.34,0-24.58,0-37.52c-4.96,0-9.48,0-14.26,0c0-3.29,0-5.89,0-8.88c12.71,0,25.4,0,38.34,0
		C1396.2,1080.69,1396.2,1083.28,1396.2,1086.64z"/>
	<path class="st0" d="M1301.62,1115.67c0,3.14,0,5.72,0,8.64c-11.13,0-22.18,0-33.5,0c0-15.44,0-30.69,0-46.34c3.08,0,6.12,0,9.85,0
		c0,12.41,0,24.79,0,37.71C1286.2,1115.67,1293.77,1115.67,1301.62,1115.67z"/>
	<path class="st0" d="M970.32,1124.49c-3.23,0-6.03,0-9.19,0c0-15.51,0-30.88,0-46.59c2.99,0,5.91,0,9.19,0
		C970.32,1093.32,970.32,1108.68,970.32,1124.49z"/>
	<path class="st0" d="M1171.5,1077.98c0,15.6,0,30.71,0,46.24c-3.14,0-6.16,0-9.47,0c0-15.33,0-30.57,0-46.24
		C1164.99,1077.98,1168.01,1077.98,1171.5,1077.98z"/>
	<path class="st0" d="M1058.58,1078.05c2.89,0,5.81,0,9.1,0c0,15.48,0,30.67,0,46.19c-2.95,0-5.83,0-9.1,0
		C1058.58,1108.91,1058.58,1093.57,1058.58,1078.05z"/>
	<g>
		<path class="st0" d="M333.1,952.13c-0.46-106.83,86.96-199.79,202.21-196.87c106.59,2.7,191.18,90.08,191.23,196.9
			c0.05,108.41-89.07,198.3-200,196.59C420.77,1147.13,333.09,1060.54,333.1,952.13z M651.14,951.92l-0.16-0.14
			c0.43,18.14,3.13,35.89,9.48,54.51c6.81-18.23,8.77-35.88,9.79-54.32c10.6,0,20.82,0,30.99,0
			c1.51-52.85-26.71-118.77-91.24-151.61c-66.24-33.71-130.51-27.16-188.79,18.97c-42.11,33.33-62.18,78.63-63.4,133.01
			c11.14,0,21.22,0,31.43,0c0.58,6.43,0.92,12.4,1.7,18.32c0.78,5.92,1.82,11.82,3.08,17.66c1.21,5.61,2.85,11.12,4.3,16.68
			c0.48-0.1,0.95-0.2,1.43-0.29c5.54-16.9,8.43-34.29,8.87-52.82c8.16,0,15.95,0,23.73,0c-0.11,1.48-0.33,2.97-0.33,4.45
			c-0.01,22.68,2.86,45.05,7.34,67.23c0.79,3.92,1.84,7.79,2.77,11.68c0.41-0.03,0.83-0.06,1.24-0.09
			c1.51-7.44,3.18-14.86,4.51-22.34c3.59-20.15,5.6-40.45,5.35-60.94c7.37,0,14.75,0,22.12,0c-0.15,2.14-0.45,4.29-0.43,6.43
			c0.22,29.3,2.65,58.43,6.98,87.41c1.09,7.27,2.4,14.52,3.61,21.77c1.34-1,1.75-1.99,1.89-3.03c2.39-17.94,5.4-35.82,6.95-53.83
			c1.68-19.53,1.99-39.17,2.89-58.76c6.7,0,13.41,0,20.11,0c0.56,18.6,0.5,37.24,1.82,55.78c1.84,26,4.62,51.94,7.18,77.88
			c0.62,6.24,1.93,12.42,2.93,18.63c0.45-0.01,0.91-0.03,1.36-0.04c1.89-14.27,4.13-28.51,5.57-42.83
			c1.83-18.17,3.36-36.39,4.35-54.63c0.99-18.24,1.15-36.52,1.67-54.79c6.71,0,13.41,0.01,20.12,0.01
			c-0.77,38.93,3.61,77.37,10.89,115.6c0.8-0.86,1.13-1.72,1.24-2.61c3.1-26.53,6.5-53.04,9.11-79.62
			c1.08-11.04,0.48-22.24,0.65-33.36c7.38-0.01,14.75-0.01,22.13-0.02c-1.03,21.07,5.39,73.04,11.48,84.27
			c2.2-12.24,4.89-23.37,6.05-34.65c1.69-16.48,2.29-33.06,3.35-49.61C635.21,951.9,643.18,951.91,651.14,951.92z"/>
		<path class="st0" d="M542.36,951.98c-8.37,0-16.73,0-25.1,0c0.72-19.13,1.03-38.29,2.27-57.39c1.3-20.06,3.38-40.08,5.35-60.09
			c0.85-8.59,2.28-17.12,3.48-25.68c0.17-1.22,0.5-2.42,0.95-4.58c0.99,1.42,1.68,1.97,1.76,2.59c2.43,20.96,5.46,41.88,7.02,62.91
			C540.12,897.11,540.99,924.56,542.36,951.98z"/>
		<path class="st0" d="M497.36,951.98c-7.37,0-14.74,0-22.11,0c1.06-20.91,1.59-41.87,3.36-62.72c1.44-16.95,4.36-33.77,6.63-50.64
			c0.48-0.02,0.96-0.04,1.44-0.07c1.14,6.71,2.59,13.39,3.35,20.14c1.95,17.31,3.88,34.64,5.27,52
			C496.41,924.42,496.71,938.22,497.36,951.98z"/>
		<path class="st0" d="M584.36,951.98c-7.37,0-14.74,0-22.11,0c0.37-10.47,0.25-20.98,1.21-31.39c2.11-22.96,4.72-45.87,7.23-68.78
			c0.48-4.38,1.43-8.72,3.36-13.15c1.43,9.29,3.02,18.56,4.24,27.88c1.22,9.37,2.19,18.78,3.04,28.2c0.86,9.6,1.59,19.21,2.1,28.83
			C583.92,933.03,584.06,942.51,584.36,951.98z"/>
		<path class="st0" d="M627.36,951.98c-7.03,0-14.07,0-21.1-0.01c1.4-27.13,3.31-54.19,10.73-80.65
			C624.06,897.76,626.92,924.71,627.36,951.98z"/>
		<path class="st0" d="M453.36,951.98c-7.04,0-14.07,0-21.11,0c0.41-27.27,3.42-54.19,10.3-80.66
			C450.11,897.76,451.91,924.85,453.36,951.98z"/>
		<path class="st0" d="M651.14,951.92c1.71-12.6,3.27-25.22,5.2-37.79c0.68-4.44,2.28-8.74,4.14-13.04
			c6.11,16.23,8.64,32.89,8.91,50.69c-6.26,0-12.33,0-18.41,0C650.99,951.78,651.14,951.92,651.14,951.92z"/>
		<path class="st0" d="M399.03,901.2c6.02,16.16,8.57,32.8,8.85,50.26c-5.93,0-11.46,0-17.53,0
			C390.32,934.19,393.1,917.49,399.03,901.2z"/>
	</g>
</g>
</svg>
