<svg id="Layer_1" data-name="Layer 1" xmlns="http://www.w3.org/2000/svg" viewBox="0 0 539.12 539.05"><defs><style>.cls-1{fill:#fff;}</style></defs><path class="cls-1" d="M270.44,643.39c7.44-11.51,18.12-14.42,31.49-14.39q238.11.51,476.22.22c25.12,0,31.39,6.19,31.4,30.83q0,61.77,0,123.55c0,16.88-8.6,25.77-25.37,25.78q-244.29.11-488.58.14c-12.06,0-19.37-6.22-25.14-15.62Zm76.39,131.28c10.6-5.62,19.54-11.09,29.09-15.08a19.91,19.91,0,0,1,13.92.12c9.48,4,18.36,9.39,28.91,15-2-11.59-4.43-21.4-5.12-31.32A23.18,23.18,0,0,1,417.92,729c6-7.91,13.4-14.77,21-22.86-9.78-1.49-19.19-3.54-28.7-4.17-6.89-.45-10.84-2.95-13.52-9.3-3.85-9.1-8.54-17.83-13.86-28.75-5.29,10.75-9.86,19.18-13.62,28-2.79,6.52-6.51,9.82-14.12,10.15-9.42.42-18.76,2.65-28.45,4.14,7.45,8,13.73,15.33,20.7,22,4.77,4.54,6.9,8.68,5,15.62C349.78,753.28,348.77,763.28,346.83,774.67Zm229.16,0c-2-11.58-4.41-21.38-5.1-31.3A23.1,23.1,0,0,1,575.16,729c6-7.92,13.38-14.8,20.92-22.89-9.71-1.48-19.12-3.52-28.62-4.16-6.87-.46-10.85-2.92-13.54-9.28-3.83-9.1-8.54-17.84-13.86-28.78-5.29,10.75-9.85,19.18-13.61,28-2.79,6.51-6.49,9.84-14.1,10.17-9.43.41-18.78,2.65-28.58,4.16,7.49,8,13.8,15.31,20.78,21.92,4.78,4.53,6.93,8.66,5.06,15.61-2.58,9.59-3.59,19.59-5.54,31,10.59-5.62,19.53-11.09,29.09-15.08a19.83,19.83,0,0,1,13.91.11C556.56,763.68,565.45,769.1,576,774.69ZM697.27,663.88c-5.72,11.63-9.78,21.25-15.12,30.1-2.09,3.45-6.77,6.46-10.79,7.39-9.83,2.28-20,3.24-30.31,4.77,7.45,8,13.47,15.12,20.25,21.44,5.11,4.77,7.49,9.1,5.43,16.52-2.62,9.4-3.45,19.29-5.31,30.54,10.82-5.75,19.79-11.15,29.32-15.26a18.1,18.1,0,0,1,13,0c9.68,4.16,18.79,9.61,29.5,15.28-1.94-11.49-2.83-21.2-5.39-30.44-2-7.35,0-11.92,5.4-16.5,7.3-6.18,14.1-12.95,23-21.18-12.37-1.9-21.53-4.16-30.75-4.46-8.08-.27-12-3.8-14.87-10.78C707,682.71,702.52,674.56,697.27,663.88Z" transform="translate(-270.44 -270.48)"/><path class="cls-1" d="M558,270.48c22.61,8,40.06,21.31,46.47,45.72,6,22.95,2.43,45.39-5.15,67.18-4.76,13.7-11,26.92-17.13,40.11C574,441.16,577,452,594.92,459.54c13,5.44,26.83,9,40.51,12.57,25.84,6.73,37.62,18.66,38.74,45,1.25,29.46.29,59,.29,89.33H407.3c0-33-1.19-65.85.44-98.51,1-19.73,14.86-30.7,33.92-35.27,13-3.13,26.17-6.3,38.71-11,23.19-8.61,26.89-19.49,15.72-41.42-13.33-26.16-24-53-23.49-83.18.53-32.76,15.51-53.79,46.8-64.72a11.11,11.11,0,0,0,2.64-1.92Z" transform="translate(-270.44 -270.48)"/><path class="cls-1" d="M270.44,515.34c4.64-16.82,16.38-24.59,33-27.36a116.84,116.84,0,0,0,25.58-7.83c14.55-6.08,16.15-13.91,10.61-28.67-7.15-19-15.33-38.39-17.86-58.28-5.11-40,30.7-66.47,68.78-53,19.79,7,31.32,23.6,31.78,48,.45,23.82-3,47.09-16.8,67.38-17.06,25.11-22.78,53.17-22.82,82.86,0,22.39,0,44.78,0,69H270.44Z" transform="translate(-270.44 -270.48)"/><path class="cls-1" d="M809.4,606.73H697.26c0-9.94,0-19.55,0-29.15-.06-16.09.25-32.2-.32-48.28-1-27-7.94-52.25-22.55-75.31-13.93-22-19-46.44-16-72,3.73-31.91,25.4-47.67,58.34-44.2,26.95,2.83,45.76,25.73,41.6,55.12-2.67,18.88-9.26,37.53-16.42,55.35-7.81,19.47-5.94,26.89,14.15,33.84,9.14,3.17,18.69,5.13,28,7.79,16.76,4.78,24.83,14,25.18,31.34C809.82,549.32,809.4,577.39,809.4,606.73Z" transform="translate(-270.44 -270.48)"/></svg>