<svg id="Layer_1" data-name="Layer 1" xmlns="http://www.w3.org/2000/svg" viewBox="0 0 581.53 439.89"><defs><style>.cls-1{fill:#fff;}</style></defs><path class="cls-1" d="M830.77,644.15c-3.27,14.86-5.35,30.11-10.08,44.49-7.78,23.59-17.28,46.61-26.59,71.3L749.77,734.3c35.77-66.12,42.85-134.57,17.62-205.1-18-50.3-49.94-90.26-94.43-119.73-88.16-58.37-205.37-51.41-286.31,15-74.87,61.46-123.43,184.86-56.55,310l-41.2,24c-15.17-24-25-49.88-31.45-77C217.62,515.47,326.72,351.33,495,323.77,649.28,298.49,798.56,405,826.11,560c1.25,7,3.09,14,4.66,20.93Z" transform="translate(-249.23 -320.06)"/><path class="cls-1" d="M541.48,521.25c5.12,25,10.29,50.07,15.35,75.12,2.71,13.45,5.48,26.89,7.77,40.41,1.53,9,5.3,15.65,12.7,21.89,25.2,21.26,26.62,58.25,4.25,82a56.57,56.57,0,0,1-82,.76c-22.79-23.37-22.19-60.64,2.79-82,8.48-7.25,11.89-15.08,13.84-25.2,7-36,14.39-72,21.67-108,.35-1.72,1-3.38,1.45-5.06Z" transform="translate(-249.23 -320.06)"/><path class="cls-1" d="M554.65,476.41H523.88c0-20.56-.21-40.66.29-60.75.05-2.32,3.76-6,6.3-6.56,21.82-4.53,26-1,25.91,21,0,14.54-.19,29.08-.36,43.62C556,474.46,555.32,475.16,554.65,476.41Z" transform="translate(-249.23 -320.06)"/><path class="cls-1" d="M416.41,552.36c-4.25,10.65-8,19.94-12.24,30.7L344.5,557.34l11.78-31Z" transform="translate(-249.23 -320.06)"/><path class="cls-1" d="M604.14,419.1l29.33,12.81-24.78,62.58-29.45-12.65Z" transform="translate(-249.23 -320.06)"/><path class="cls-1" d="M662.91,550.36l59.33-27c4.21,10,8.18,19.35,12.89,30.46l-59.66,27.09Z" transform="translate(-249.23 -320.06)"/><path class="cls-1" d="M500.45,481.89,471.2,494.81,446,432.41l29.39-13.05C484,440.77,492,460.82,500.45,481.89Z" transform="translate(-249.23 -320.06)"/><path class="cls-1" d="M628.06,508.61l44.67-47,25.47,22.64-49.1,43.13Z" transform="translate(-249.23 -320.06)"/><path class="cls-1" d="M406.19,460.2l45.66,48-19,20.23-49.7-43.82Z" transform="translate(-249.23 -320.06)"/></svg>