<svg id="Layer_1" data-name="Layer 1" xmlns="http://www.w3.org/2000/svg" viewBox="0 0 607.79 394.14"><defs><style>.cls-1{fill:#fff;}</style></defs><path class="cls-1" d="M380.77,436.89c25.09,0,50.64,3,75.19-.64,48.5-7.21,87.82-34.92,125.72-64.13,9.94-7.66,18.43-17.38,28.91-24.08,6.1-3.9,15.7-6.41,22.1-4.4,4.47,1.41,8.56,11.46,8.76,17.79.92,29,.6,58,.29,87.05-.09,7.85,1.81,13.41,8.1,19,32.21,28.7,31.73,75.83.25,105.66-4.32,4.11-7.7,11.41-7.87,17.33-.8,29-.48,58-.29,87.06.05,8.23-.69,15.93-9.26,19.64-9.06,3.92-16.53.84-23.56-5.7-31.87-29.65-66.59-55.3-106.42-73.43-24.69-11.24-50.37-17.39-77.88-16.76-36,.82-72,.08-107.95.28-9.31.06-16.76-1.63-21.51-11-1.44-2.81-6.66-4.32-10.44-5.22-30.8-7.35-49-31.84-48.81-66.16.18-33.76,18.13-56.87,49.11-64.28,4.21-1,7.41-5.69,11.5-7.88,6.14-3.28,12.55-8,19-8.35,21.63-1,43.34-.39,65-.39Zm225.72-39c-12.87,9.23-23.6,17.24-34.64,24.79-49.1,33.58-102.16,54-163,50.57-23.77-1.33-47.68-.21-71.53-.16-9.74,0-18,3.43-18,14.23s8,13.9,18,13.83c33.82-.24,67.64-.09,101.46-.08h25.65v68.74c54,11.08,98.33,39,142,72.53Z" transform="translate(-236.1 -342.93)"/><path class="cls-1" d="M749.69,416.17l23.5-29.51c98.72,68.81,89.73,210.93,0,270.24l-23-28.9c35.37-27,55.11-62.29,55-105.85S785.69,443.11,749.69,416.17Z" transform="translate(-236.1 -342.93)"/><path class="cls-1" d="M338.12,625.69c29.72,0,57.82-.07,85.91,0,11.86,0,15.37,10,14.08,17.75C434.24,666.77,442.9,683,461,696.54c4.61,3.46,6.58,10.88,8.92,16.81,5,12.78,0,24.86-17.87,23.63-19.81-1.36-39.8.23-59.67-.59-5.12-.22-13-3.45-14.61-7.34C364,695.2,351.44,660.89,338.12,625.69Z" transform="translate(-236.1 -342.93)"/><path class="cls-1" d="M703.19,474.49l23.39-29c55.6,32.22,55.6,119.44.29,153.21l-23.22-29.05c15.66-12.13,26.15-27.26,26.25-47S720.29,487.15,703.19,474.49Z" transform="translate(-236.1 -342.93)"/></svg>