<svg id="Layer_1" data-name="Layer 1" xmlns="http://www.w3.org/2000/svg" viewBox="0 0 401.6 400.5"><defs><style>.cls-1{fill:#fff;}</style></defs><path class="cls-1" d="M541.45,339.75c3.19,2.15,6.27,4.47,9.59,6.41Q641.57,399,732.14,451.78c2.37,1.39,4.68,2.88,8.21,5.05-3.23,2-5.64,3.63-8.13,5.08Q639.52,516,546.88,570.23c-5.23,3.07-9,3.13-14.21,0q-92.53-54.4-185.32-108.35c-2.36-1.38-4.64-2.88-8.11-5,3.49-2.16,6.15-3.89,8.89-5.49Q439,398.32,529.91,345.25c2.83-1.65,5.47-3.66,8.19-5.5Z" transform="translate(-339.2 -339.75)"/><path class="cls-1" d="M740.8,540.53c-20.51,12-39.46,23-58.42,34.09q-68.14,39.76-136.3,79.54c-3.66,2.14-6.49,3.79-11.22,1Q439.13,598.88,343.11,543.1c-.93-.54-1.75-1.28-3.88-2.87,12.5-7.3,24.21-14.5,36.36-20.86,2-1,6.21,1.13,8.9,2.69q74,43,147.82,86.29c5.52,3.26,9.36,3.26,14.88,0,49.15-29,98.55-57.53,147.72-86.48,5.27-3.1,9.15-3.29,14.3,0C719,528.18,729.22,533.76,740.8,540.53Z" transform="translate(-339.2 -339.75)"/><path class="cls-1" d="M339.2,623.92c12.41-7.26,23.51-14.16,35.08-20.17,2.33-1.21,6.89.11,9.61,1.68q74.43,43.07,148.55,86.69c5.66,3.35,9.49,2.94,14.89-.23,48.92-28.81,98.1-57.19,147-86.08,6-3.53,10.22-3.38,15.79.23,9.49,6.16,19.46,11.59,30.18,17.88-2.88,1.94-4.78,3.39-6.83,4.58q-94.11,54.91-188.21,109.85c-3.71,2.17-6.42,2.73-10.5.34q-95.42-56-191.06-111.57C342.51,626.44,341.48,625.56,339.2,623.92Z" transform="translate(-339.2 -339.75)"/></svg>