<svg id="Layer_1" data-name="Layer 1" xmlns="http://www.w3.org/2000/svg" viewBox="0 0 332.36 440.48"><defs><style>.cls-1{fill:#fff;}</style></defs><path class="cls-1" d="M549.55,319.76v32.42H531.16V319.76Z" transform="translate(-373.82 -319.76)"/><path class="cls-1" d="M570,534.3H510.06c.6-27.53-17.23-47.6-27.92-70.68-14.62-31.58-4.51-65.41,23.75-81.48,29.91-17,69.39-9.18,88,17.7,11.54,16.69,13.74,35.05,7.76,54.27a91.79,91.79,0,0,1-7.75,17.55C582.81,491.34,570,510.25,570,534.3Z" transform="translate(-373.82 -319.76)"/><path class="cls-1" d="M531.59,623.86c-15.13,16.6-29.53,32.43-44.56,48.93L373.82,610.22l41.55-46-41.24-39.13,88.51-45.81c13.42,16,22.48,33.94,26,54.47.37,2.15-2.42,5.94-4.72,7.28-14.53,8.47-29.34,16.46-44.05,24.62-2.61,1.45-5.17,3-8.51,4.93Z" transform="translate(-373.82 -319.76)"/><path class="cls-1" d="M549,624.09,649.1,570.5c-16.59-9.17-32-18.35-48-26.29-8.51-4.22-10.23-8.93-7.72-17.89A119.14,119.14,0,0,1,618,479.9l88.21,46c-14.09,13-27.33,25.27-41.33,38.22l41.2,47.68c-10.13,5.69-19.58,11.24-29.26,16.37-25.4,13.45-51,26.58-76.3,40.17-4.87,2.62-7.76,2.52-11.64-1.78C576.14,652.53,562.93,638.9,549,624.09Z" transform="translate(-373.82 -319.76)"/><path class="cls-1" d="M549.5,759.52V651.06c7.37,7.72,13.22,14,19.24,20.13,7.24,7.36,13.89,19.27,22.16,20.57s18.34-7.92,27.54-12.67c14.87-7.67,29.68-15.46,46.32-24.13,0,15.2.13,28.77-.18,42.34,0,1.57-2.21,3.65-3.9,4.55q-54.6,29.13-109.35,58C551.12,760,550.75,759.77,549.5,759.52Z" transform="translate(-373.82 -319.76)"/><path class="cls-1" d="M415.46,654l75.37,41.29,39.45-43v108c-2.34-1-4.8-1.82-7-3-33.69-17.93-67.3-36-101.07-53.77-4.92-2.59-7.09-5.43-6.85-11.23C415.81,680.07,415.46,667.89,415.46,654Z" transform="translate(-373.82 -319.76)"/><path class="cls-1" d="M539.53,555.93c-7.32,0-14.69.47-21.94-.26-2.45-.24-4.6-3.49-6.89-5.37,2.32-1.87,4.59-5.29,7-5.37,14.93-.51,29.91-.55,44.84,0,2.52.09,4.9,3.86,7.34,5.93-2.48,1.7-4.84,4.63-7.45,4.86-7.57.66-15.24.23-22.87.23Z" transform="translate(-373.82 -319.76)"/><path class="cls-1" d="M477.59,337.11l16.7-8.37,14.21,29L491.82,366C487.05,356.32,482.44,347,477.59,337.11Z" transform="translate(-373.82 -319.76)"/><path class="cls-1" d="M436.83,376.82c3.74-5.25,7.05-9.89,10.81-15.18l26.46,18.75-10.88,15.2Z" transform="translate(-373.82 -319.76)"/><path class="cls-1" d="M617.24,395.51l-11-15.15,26.33-18.77,10.89,15.18Z" transform="translate(-373.82 -319.76)"/><path class="cls-1" d="M657.4,436H626V418.09H657.4Z" transform="translate(-373.82 -319.76)"/><path class="cls-1" d="M588.59,365.94l-16.81-8.21,14.11-29,16.76,8.15C598,346.6,593.52,355.78,588.59,365.94Z" transform="translate(-373.82 -319.76)"/><path class="cls-1" d="M455.53,418.08c-.4,6.29-.75,11.73-1.13,17.77H422.7V418.08Z" transform="translate(-373.82 -319.76)"/><path class="cls-1" d="M561.23,567c-9,12.19-28,15.56-43.37,0Z" transform="translate(-373.82 -319.76)"/></svg>