<svg id="Layer_1" data-name="Layer 1" xmlns="http://www.w3.org/2000/svg" viewBox="0 0 332.53 285.07"><defs><style>.cls-1{fill:#fff;}</style></defs><path class="cls-1" d="M539.43,682.53H397.74c-17.68,0-24-6.19-24-23.53V420.3c0-16.3,6.54-22.82,23-22.83H683.5c16.21,0,22.76,6.68,22.76,23.12V660.13c0,15.67-6.78,22.39-22.59,22.39Q611.55,682.55,539.43,682.53Zm1.31-273.29c-48.09,0-96.18.11-144.27-.11-7.83,0-11.42,2.37-11,10.64a236.42,236.42,0,0,1-.06,28.67c-.49,7,1.56,8.73,8.63,8.7C470,456.85,545.9,457,621.83,457a50.88,50.88,0,0,1,8.37.43,5.53,5.53,0,0,1-.51,10.94c-2.25.1-4.5.07-6.75.07q-114.72,0-229.48-.12c-6,0-8.09.93-8.06,7.61q.45,91.95.06,183.92c0,7.84,2.36,11.07,10.6,11q143.85-.27,287.7,0c8,0,10.83-2.82,10.8-10.86q-.28-119.82-.13-239.61c0-10.13-1-11.15-11.11-11.16Z" transform="translate(-373.74 -397.47)"/><path class="cls-1" d="M539.56,527.7c-36,0-72-.17-108,.13-7.66.07-10.93-2.42-10.35-10.18a137.75,137.75,0,0,0,0-16c-.31-6.57,2.73-8.91,9.1-8.9q109.7.15,219.38,0c6.38,0,9.21,2.41,9.1,8.93-.5,31,3.84,25.74-24.75,26C602.56,527.9,571.06,527.7,539.56,527.7Zm.49-11.06h98.61c4.23,0,8.76,1.54,8.73-6.16,0-7.2-3.72-6.53-8.4-6.52q-99,.09-198,0c-4.79,0-8.35-.48-8.31,6.61,0,6.86,3.65,6.13,8,6.12q49.65-.09,99.33-.05Z" transform="translate(-373.74 -397.47)"/><path class="cls-1" d="M605.46,552.3c14.61,0,29.25.23,43.85-.1,6.91-.16,9.6,2.45,9.53,9.34q-.33,32.06,0,64.11c.06,7-3.08,9.4-9.72,9.37q-43.86-.22-87.72,0c-7,0-9.29-2.81-9.19-9.64.29-21.37.34-42.74,0-64.11-.14-7.19,2.59-9.26,9.4-9.09C576.21,552.55,590.84,552.3,605.46,552.3Zm.28,71.11c11.78,0,23.57-.21,35.35.11,4.75.13,6.21-1.22,6.13-6.07q-.45-24,0-48c.08-4.74-1.29-6.25-6.1-6.21q-35.77.33-71.54,0c-4.71,0-6.38,1.31-6.3,6.17q.39,24,0,48c-.08,4.84,1.52,6.22,6.26,6.1,12.06-.3,24.13-.1,36.19-.1Z" transform="translate(-373.74 -397.47)"/><path class="cls-1" d="M474.71,599.72h44.6c4.05,0,8.38-.28,8.29,5.54-.1,5.52-4.28,5.85-8.38,5.85H430c-4.29,0-8.5-.87-8.46-5.85s4.22-5.65,8.56-5.61C445,599.81,459.84,599.72,474.71,599.72Z" transform="translate(-373.74 -397.47)"/><path class="cls-1" d="M474.69,563.36H430c-4.25,0-8.57-.51-8.44-5.7s4.51-5.43,8.72-5.43q44.73.1,89.44,0c3.84,0,7.75,0,7.91,5.22.16,5.72-4,5.85-8.18,5.85Z" transform="translate(-373.74 -397.47)"/><path class="cls-1" d="M451,576h22.75c3.42,0,6.18.75,6.45,4.87.29,4.42-2.33,6.19-6.18,6.22-15.45.11-30.9.08-46.35,0-3.54,0-6.22-1.94-6.2-5.44,0-3.9,2.7-5.79,6.78-5.73C435.87,576.11,443.47,576,451,576Z" transform="translate(-373.74 -397.47)"/><path class="cls-1" d="M445.75,623.42c5.31,0,10.61.05,15.91,0,3.83,0,6.68,1,6.71,5.46,0,4.27-2.8,6-6.5,6-11.16.16-22.33.1-33.49.06-3.82,0-6.89-1.94-6.87-5.76,0-4.3,3.21-6,7.5-5.8C434.59,623.57,440.18,623.41,445.75,623.42Z" transform="translate(-373.74 -397.47)"/><path class="cls-1" d="M664.37,468.4h-11.8c-3.33,0-5.15-1.79-5.44-5.12s1.79-5.77,4.72-5.87c8.67-.32,17.37-.18,26,.14,2.87.1,4.51,2.72,4.42,5.31a5.31,5.31,0,0,1-5.15,5.47H677c-4.21.19-8.43.05-12.65.05Z" transform="translate(-373.74 -397.47)"/><path class="cls-1" d="M444.74,433.39v5.89c-.11,3.33-1.86,5.12-5.18,5.42a5.19,5.19,0,0,1-5.95-4.28c0-.13,0-.26-.05-.39a67.81,67.81,0,0,1-.28-12.58c.18-3.45,2.32-6.14,5.8-6,3.73.19,6,2.71,5.68,6.85-.11,1.67,0,3.36,0,5.05Z" transform="translate(-373.74 -397.47)"/><path class="cls-1" d="M463.16,432.51c0-1.95-.12-3.9,0-5.83.25-3.32,2.71-5,5.49-5.22a5.23,5.23,0,0,1,5.55,4.11,31.21,31.21,0,0,1,.14,14.79,5.3,5.3,0,0,1-6.11,4.35h-.09c-3.26-.42-4.91-2.3-5-5.53C463.12,437,463.16,434.73,463.16,432.51Z" transform="translate(-373.74 -397.47)"/><path class="cls-1" d="M593.22,433.24c0,1.94.06,3.89,0,5.83-.15,3.18-1.74,5.22-5,5.6-3.75.45-6-1.86-6.51-5a56.35,56.35,0,0,1-.15-12.45c.26-3.4,2.66-5.9,6-5.69,3.61.22,6,2.62,5.68,6.74C593.13,429.9,593.23,431.57,593.22,433.24Z" transform="translate(-373.74 -397.47)"/><path class="cls-1" d="M611.75,432.56a44.05,44.05,0,0,1,.07-6.7,5.26,5.26,0,0,1,5.39-4.39,4.84,4.84,0,0,1,5,3.63,34.17,34.17,0,0,1,.13,15.74c-.58,2.67-2.69,4.16-5.69,3.88-3.34-.31-5-2.11-5.08-5.43v-6.73Z" transform="translate(-373.74 -397.47)"/><path class="cls-1" d="M682.66,433.91c-.17,2.23.2,4.7-.63,6.65-1.66,3.85-4.73,5.66-8.79,3.17-3.69-2.27-3.7-18.45,0-21,4.62-3.17,7.5-.57,8.94,3.62.79,2.26.14,5,.14,7.52Z" transform="translate(-373.74 -397.47)"/><path class="cls-1" d="M404,432.81a53.8,53.8,0,0,1,.06-6.72,5.16,5.16,0,0,1,5.19-4.6,5.26,5.26,0,0,1,5.52,4.16c1.16,4.17.75,8.38.5,12.53-.22,3.49-1.52,6.68-6,6.54s-5.43-3.14-5.38-6.87v-5Z" transform="translate(-373.74 -397.47)"/><path class="cls-1" d="M522.28,433.4c0-1.67.08-3.33,0-5-.23-4,2-6.75,5.59-6.86,4.16-.13,6.3,2.86,6.25,7.14,0,2.78,0,5.56,0,8.33.09,4.06-1.18,7.43-5.71,7.59-5.18.17-6.31-3.5-6.13-7.88C522.31,435.62,522.28,434.51,522.28,433.4Z" transform="translate(-373.74 -397.47)"/><path class="cls-1" d="M652.36,433.62c0,2,.08,3.93,0,5.89-.12,2.88-1.59,4.69-4.5,5.16a5.31,5.31,0,0,1-6.41-3.89.85.85,0,0,0,0-.17c-1.32-4.64-.93-9.47-.28-14.18a5.63,5.63,0,0,1,11.22.46C652.46,429.12,652.36,431.37,652.36,433.62Z" transform="translate(-373.74 -397.47)"/><path class="cls-1" d="M563.24,433.1a62.39,62.39,0,0,1,0,6.7c-.34,3.2-2.12,5-5.56,4.92s-5.15-1.85-5.25-5.17c-.11-3.63.07-7.28-.11-10.9-.19-3.93,1.37-7,5.28-7.16,4.5-.16,6,3.25,5.82,7.41,0,1.4,0,2.8,0,4.2Z" transform="translate(-373.74 -397.47)"/><path class="cls-1" d="M503.91,434c0,1.95.09,3.92,0,5.87-.17,2.93-1.82,4.53-4.76,4.8-3.32.31-5.6-1.2-5.93-4.45a122.29,122.29,0,0,1-.32-12.55c0-3.54,1.89-6.22,5.35-6.21,3.82,0,6,2.57,5.79,6.67-.09,1.95,0,3.91,0,5.87Z" transform="translate(-373.74 -397.47)"/><path class="cls-1" d="M505.25,576h5c3.31,0,5.25,1.59,5.49,5,.27,3.88-1.93,5.74-5.45,6-3.34.27-6.71.15-10.07.15-4.09,0-7.47-1.19-7.21-6,.24-4.3,3.34-5.37,7.16-5.15C501.87,576.1,503.56,576,505.25,576Z" transform="translate(-373.74 -397.47)"/></svg>